# xmcd
#
# Track frame offsets:
# 150
# 18033
# 31058
# 48896
# 61931
# 79511
# 101079
#
# Disc length: 1594 seconds
#
# Revision: 0
# Processed by: cddbd v1.5.2PL0 Copyright (c) Steve Scherf et al.
# Submitted via: Audion 3.0.2 (http://www.panic.com/audion/)
#
DISCID=42063807
DTITLE=Tracy Marie - Tracy Marie and Friends
DYEAR=1900
DGENRE=
TTITLE0=Old Oak Tree
TTITLE1=Beautiful Again
TTITLE2=Real Good Time
TTITLE3=Breakfast in Bed
TTITLE4=I Got Caught
TTITLE5=The Hard Road
TTITLE6=Say Goodbye
EXTD=
EXTT0=
EXTT1=
EXTT2=
EXTT3=
EXTT4=
EXTT5=
EXTT6=
PLAYORDER=
